<svg width="242" height="87" viewBox="0 0 242 87" fill="none" xmlns="http://www.w3.org/2000/svg">
<path d="M24.3013 69.915L28.1648 29.1754L35.5573 28.5127L32.3895 61.8863L45.4945 60.6835L44.7986 68.0428L24.3013 69.915ZM62.4066 66.8831C52.5522 67.7546 50.8093 60.2561 51.2036 56.1672L54.0102 26.8394L61.4623 26.1767L58.6855 55.4946C58.3211 59.3151 61.5352 59.5967 63.1389 59.4542C64.6863 59.3151 68.0064 58.4602 68.3676 54.6364L71.1476 25.3052L78.5964 24.6425L75.8131 54.0433C75.4088 58.1355 72.2775 65.9918 62.4199 66.8665L62.4066 66.8831ZM100.267 63.0461L92.152 40.6832L90.0479 63.9672L82.5991 64.6299L86.456 23.9202L93.6629 23.2575L101.725 46.4156L103.882 22.3496L111.218 21.6869L107.358 62.4066L100.267 63.0461ZM135.592 59.8585L134.071 50.796L123.412 51.7404L120.118 61.2535L112.437 61.9626L127.043 20.2786L136.155 19.4602L143.21 59.1891L135.592 59.8585ZM130.698 29.7619L125.88 44.2817L132.928 43.6554L130.698 29.7619ZM166.428 57.0818L160.51 42.0219L157.196 42.3168L155.705 58.0493L148.253 58.712L152.09 18.0056L164.857 16.8525C174.771 15.9744 175.99 23.6816 175.639 27.3894L175.48 29.1588C175.205 32.0681 173.618 37.4095 168.349 40.2525L174.788 56.3296L166.428 57.0818ZM168.124 28.2244C168.482 24.4603 165.669 24.1455 164.065 24.288L158.85 24.7486L157.882 34.9608L163.213 34.487C164.817 34.3445 167.617 33.589 167.978 29.7652L168.124 28.2244Z" fill="black"/>
<path d="M192.696 67.4097L192.336 63.2817C191.904 65.9217 190.344 67.7937 187.152 67.7937C182.88 67.7937 180.792 65.3217 180.792 59.7537V58.0977C180.792 52.5777 183.96 49.8417 188.928 49.8417C193.68 49.8417 196.32 52.0977 196.536 56.4417V56.5377H191.664V56.5137C191.52 54.9057 190.776 53.9937 188.856 53.9937C186.648 53.9937 185.616 55.3137 185.616 58.2417V59.5857C185.592 62.6337 186.576 63.7857 188.832 63.7857C190.728 63.7857 191.712 62.7057 191.856 61.1937H188.424V58.1697H196.512V67.4097H192.696ZM206.099 54.1137H203.435V58.6497H206.123C207.923 58.6497 208.907 57.9057 208.907 56.3697C208.907 54.8577 207.947 54.1137 206.099 54.1137ZM206.267 62.5137H203.435V67.4097H198.875V50.2017H206.171C211.283 50.2017 213.563 52.5537 213.563 56.3697C213.563 60.2337 211.235 62.5377 206.267 62.5137ZM228.505 54.4257H223.825V67.4097H219.145V54.4257H214.561V50.2017H228.505V54.4257Z" fill="black"/>
</svg>
